Coordinates
version=1
nRows=14
nColumns=36
inDegrees=yes

Units are S.I. units (second, meters, Newtons, ...)
If the header above contains a line with 'inDegrees', this indicates whether rotational values are in degrees (yes) or radians (no).

endheader
time	pelvis_tilt	pelvis_list	pelvis_rotation	pelvis_tx	pelvis_ty	pelvis_tz	hip_flexion_r	hip_adduction_r	hip_rotation_r	knee_angle_r	knee_angle_r_beta	ankle_angle_r	subtalar_angle_r	mtp_angle_r	hip_flexion_l	hip_adduction_l	hip_rotation_l	knee_angle_l	knee_angle_l_beta	ankle_angle_l	subtalar_angle_l	mtp_angle_l	lumbar_extension	lumbar_bending	lumbar_rotation	arm_flex_r	arm_add_r	arm_rot_r	elbow_flex_r	pro_sup_r	arm_flex_l	arm_add_l	arm_rot_l	elbow_flex_l	pro_sup_l
     29.93333330	     -8.06124791	      7.75758470	      1.45096886	      0.69794874	      0.88238561	      0.77158734	    -13.80534750	     -9.43728502	     11.34849192	     17.33416089	      0.30253818	     10.07820464	     -4.67350683	     -7.49999987	     48.41316105	      6.49315199	     -1.26787781	     32.44252089	      0.56622881	      9.61143077	     -3.54929655	     -7.49999987	    -14.79449242	     -7.93446257	     16.23494398	     21.09133059	    -24.67666126	     11.90995394	     39.49021899	     76.16118675	      1.95960322	     -9.70922327	     -1.87453054	     22.07428473	     76.05367084
     29.95000000	     -8.56955885	      7.96372214	      1.51178189	      0.70088016	      0.88278025	      0.77203303	    -12.91502204	     -9.62082716	     10.70340154	     19.77922833	      0.34521266	      6.98577752	     -5.00219265	     -7.49999987	     47.95875711	      7.02257583	     -0.52508365	     32.86499283	      0.57360233	      8.62843539	     -3.94493111	     -7.49999987	    -14.48189077	     -8.57435587	     15.63743486	     20.37960954	    -24.00868111	     11.86000282	     39.16642809	     76.16745321	      2.37257633	    -10.28032427	     -1.79234924	     22.05825417	     76.09929944
     29.96666670	     -9.16324477	      8.01230339	      1.82995768	      0.70784221	      0.88594449	      0.77097776	    -11.44689833	     -9.49170572	     10.15762395	     22.94675089	      0.40049636	      3.07973436	     -5.89293309	     -7.49999987	     47.55483566	      7.56195001	      0.57790547	     33.50947510	      0.58485067	      8.00802459	     -4.96814312	     -7.49999987	    -14.25036076	     -9.08038061	     14.58345446	     19.47383508	    -22.95813811	     11.40505580	     38.49408313	     76.06814264	      3.07578007	    -10.97233143	     -1.19160046	     22.48043952	     76.21873130
     29.98333330	     -9.27680391	      8.05096932	      2.43164750	      0.71939615	      0.89310436	      0.76668612	    -10.18162984	     -9.32657314	      9.23319290	     26.70974833	      0.46617305	     -1.50849993	     -6.54348967	     -7.49999987	     46.25016083	      8.30987546	      1.59684035	     34.02561100	      0.59385894	      7.80282671	     -5.89939835	     -7.49999987	    -14.53372860	     -9.56593571	     13.15149793	     17.99348859	    -21.67692728	     10.77705786	     37.55554380	     75.94306494	      3.83227809	    -11.69301001	     -0.31304595	     23.12658373	     76.39165148
     30.00000000	     -8.91096119	      8.02255098	      3.15700490	      0.73136601	      0.90172259	      0.75975700	     -9.08813046	     -9.12503371	      8.21208088	     30.84081400	      0.53827375	     -6.26850952	     -7.06610492	     -7.49999987	     44.01415323	      9.16069282	      2.55331735	     34.19434038	      0.59680383	      7.84147487	     -6.73456547	     -7.49999987	    -15.23887136	     -9.92459721	     11.54963674	     16.14281431	    -20.06063020	      8.55307977	     35.84131047	     75.72735292	      4.35461744	    -12.44619416	      2.68249343	     23.86113577	     76.63876058
     30.01666670	     -8.22191894	      7.75755226	      3.79096528	      0.73824424	      0.91009018	      0.75313821	     -7.81545559	     -8.70990123	      7.35579820	     35.10822907	      0.61275419	    -10.42989435	     -8.06322246	     -7.49999987	     41.07824249	      9.75314619	      3.56416371	     33.65733332	      0.58743128	      7.98159167	     -7.38728458	     -7.49999987	    -16.28859492	     -9.90086012	      9.94831601	     14.28887901	    -19.26319818	      8.24569694	     34.84553296	     75.65082701	      5.00119203	    -12.40289539	      3.23991025	     23.83264142	     76.55089278
     30.03333330	     -7.23418460	      7.08679009	      4.14978043	      0.73971010	      0.91847019	      0.74759797	     -6.08746648	     -7.98038840	      6.54399863	     39.62739051	      0.69162844	    -12.67492765	     -9.19666062	     -7.49999987	     37.75812136	      9.71089988	      4.56444952	     32.55428516	      0.56817946	      8.19142045	     -7.74812618	     -7.49999987	    -17.77267652	     -9.17958695	      8.48228170	     13.25238069	    -18.72694957	      7.63366432	     33.57501138	     75.50197046	      5.74992850	    -12.16914405	      4.12885917	     23.98116582	     76.39719849
     30.05000000	     -6.28537243	      6.22622557	      4.21376777	      0.74085052	      0.92452000	      0.74243902	     -3.66520393	     -7.28595284	      5.55068579	     44.44641569	      0.77573629	    -12.41127800	    -10.34514414	     -7.49999987	     34.55389073	      9.22029396	      5.39630424	     31.22922437	      0.54505279	      8.53726143	     -7.99343589	     -7.49999987	    -19.18385094	     -8.03757503	      7.32937389	     12.55532226	    -18.58533356	      7.29894865	     32.87937583	     74.81285146	      6.52124369	    -12.05823997	      5.69978892	     24.68716473	     74.94496784
     30.06666670	     -5.34454662	      5.30028640	      3.76119059	      0.74314296	      0.92803229	      0.74008893	     -0.79606404	     -6.53130414	      5.01464769	     49.39022421	      0.86202203	    -10.77860536	    -11.90203015	     -7.49999987	     31.62664499	      8.28742048	      5.77984887	     30.22583871	      0.52754040	      8.91541785	     -8.47939645	     -7.49999987	    -20.53372402	     -6.87209443	      6.66450872	     11.95160077	    -18.59521455	      7.20430377	     32.63390611	     73.81475565	      7.37473507	    -11.87773716	      5.81199751	     25.49764892	     73.52773791
     30.08333330	     -4.58750659	      4.46100739	      3.32881488	      0.74451093	      0.93220869	      0.74082139	      2.06725062	     -5.80928356	      4.34336046	     53.55275288	      0.93467186	     -8.63465370	    -12.82247543	     -7.49999987	     29.00029838	      7.37437714	      6.19429884	     29.34988292	      0.51225209	      9.09422460	     -9.31456210	     -7.49999987	    -21.57597286	     -5.85625294	      5.98887639	     11.03618850	    -18.39819487	      6.45447138	     32.72454536	     77.24368469	      8.20066605	    -12.17476842	      6.73247850	     26.42777279	     73.97698972
     30.10000000	     -4.01680663	      3.55329296	      2.74562846	      0.74309508	      0.93854250	      0.74215024	      4.76571545	     -4.87532479	      3.80974083	     56.39166838	      0.98422028	     -6.78203827	    -13.16385117	     -7.49999987	     26.62417129	      6.24975331	      6.43900032	     28.32008944	      0.49427881	      9.10817274	     -9.96776615	     -7.49999987	    -22.36327145	     -4.85554251	      5.40755444	     10.17150080	    -18.08177887	      6.33058141	     32.45706958	     76.37276582	      9.03213677	    -12.37554900	      6.81851901	     27.29340272	     73.38966300
     30.11666670	     -3.62379494	      2.47004005	      2.02874115	      0.74016230	      0.94565750	      0.74184799	      7.40051331	     -3.71991500	      3.30780653	     58.00600161	      1.01239571	     -4.91235385	    -13.31590286	     -7.49999987	     24.45204863	      4.89005506	      6.45719125	     27.02797595	      0.47172717	      8.93266920	    -10.20984952	     -7.49999987	    -22.98886108	     -3.66565348	      5.01123320	      9.37344338	    -17.94154365	      6.19380998	     32.05904011	     75.80400599	      9.96155806	    -12.52803403	      7.19683616	     28.51016208	     73.17579907
     30.13333330	     -3.42397154	      1.27567133	      1.20089824	      0.73792160	      0.94998260	      0.74041481	     10.40095765	     -2.44738827	      2.98847527	     58.65995364	      1.02380933	     -2.44398858	    -13.78296966	     -7.49999987	     22.50712305	      3.38830389	      6.16745077	     25.60692167	      0.44692509	      8.75910882	     -9.99928007	     -7.49999987	    -23.40067931	     -2.34357663	      4.80688831	      8.62348742	    -18.07105444	      6.12976669	     31.88828887	     75.93478848	     10.83997921	    -12.66097297	      7.65606041	     30.24981911	     73.57613955
     30.15000000	     -3.26938131	      0.09297346	      0.39560453	      0.73625363	      0.95147161	      0.73855695	     13.77689017	     -1.26016352	      2.87145227	     58.58885718	      1.02256846	      0.47819601	    -14.49350083	     -7.49999987	     20.69314840	      1.89161146	      5.64184041	     24.29715390	      0.42406533	      8.63956026	     -9.68688211	     -7.49999987	    -23.93302238	     -1.01235556	      4.47320171	      7.95450892	    -18.15039951	      5.51861145	     32.26147511	     76.54018427	     11.36630608	    -12.92156718	      7.41879083	     32.72357883	     74.71344272
